HIERARCHY
ROOT hip
{
	OFFSET 0.000000 0.000000 0.000000
	CHANNELS 6 Xposition Yposition Zposition Zrotation Yrotation Xrotation 
	JOINT lhipjoint
	{
		OFFSET 0.000000 0.000000 0.000000
		CHANNELS 3 Zrotation Yrotation Xrotation
		JOINT lfemur
		{
			OFFSET 1.363060 -1.794630 0.839290
			CHANNELS 3 Zrotation Yrotation Xrotation
			JOINT ltibia
			{
				OFFSET 2.448110 -6.726130 0.000000
				CHANNELS 3 Zrotation Yrotation Xrotation
				JOINT lfoot
				{
					OFFSET 2.562200 -7.039590 0.000000
					CHANNELS 3 Zrotation Yrotation Xrotation
					JOINT ltoes
					{
						OFFSET 0.157640 -0.433110 2.322550
						CHANNELS 3 Zrotation Yrotation Xrotation
						End Site
						{
							OFFSET 0.000000 0.000000 0.000000
						}
					}
				}
			}
		}
	}
	JOINT rhipjoint
	{
		OFFSET 0.000000 0.000000 0.000000
		CHANNELS 3 Zrotation Yrotation Xrotation
		JOINT rfemur
		{
			OFFSET -1.305520 -1.794630 0.839290
			CHANNELS 3 Zrotation Yrotation Xrotation
			JOINT rtibia
			{
				OFFSET -2.542530 -6.985550 0.000000
				CHANNELS 3 Zrotation Yrotation Xrotation
				JOINT rfoot
				{
					OFFSET -2.568260 -7.056230 0.000000
					CHANNELS 3 Zrotation Yrotation Xrotation
					JOINT rtoes
					{
						OFFSET -0.164730 -0.452590 2.363150
						CHANNELS 3 Zrotation Yrotation Xrotation
						End Site
						{
							OFFSET 0.000000 0.000000 0.000000
						}
					}
				}
			}
		}
	}
	JOINT lowerback
	{
		OFFSET 0.000000 0.000000 0.000000
		CHANNELS 3 Zrotation Yrotation Xrotation
		JOINT upperback
		{
			OFFSET 0.028270 2.035590 -0.193380
			CHANNELS 3 Zrotation Yrotation Xrotation
			JOINT thorax
			{
				OFFSET 0.056720 2.048850 -0.042750
				CHANNELS 3 Zrotation Yrotation Xrotation
				JOINT lowerneck
				{
					OFFSET 0.000000 0.000000 0.000000
					CHANNELS 3 Zrotation Yrotation Xrotation
					JOINT upperneck
					{
						OFFSET -0.054170 1.746240 0.172020
						CHANNELS 3 Zrotation Yrotation Xrotation
						JOINT head
						{
							OFFSET 0.104070 1.761360 -0.123970
							CHANNELS 3 Zrotation Yrotation Xrotation
							End Site
							{
								OFFSET 0.000000 0.000000 0.000000
							}
						}
					}
				}
				JOINT lclavicle
				{
					OFFSET 0.000000 0.000000 0.000000
					CHANNELS 3 Zrotation Yrotation Xrotation
					JOINT lhumerus
					{
						OFFSET 3.362410 1.200890 -0.311210
						CHANNELS 3 Zrotation Yrotation Xrotation
						JOINT lradius
						{
							OFFSET 4.983000 -0.000000 -0.000000
							CHANNELS 3 Zrotation Yrotation Xrotation
							JOINT lwrist
							{
								OFFSET 3.483560 -0.000000 -0.000000
								CHANNELS 3 Zrotation Yrotation Xrotation
								JOINT lhand
								{
									OFFSET 0.000000 0.000000 0.000000
									CHANNELS 3 Zrotation Yrotation Xrotation
									JOINT lfingers
									{
										OFFSET 0.715260 -0.000000 -0.000000
										CHANNELS 3 Zrotation Yrotation Xrotation
										End Site
										{
											OFFSET 0.000000 0.000000 0.000000
										}
									}
								}
								JOINT lthumb
								{
									OFFSET 0.000000 0.000000 0.000000
									CHANNELS 3 Zrotation Yrotation Xrotation
									End Site
									{
										OFFSET 0.000000 0.000000 0.000000
									}
								}
							}
						}
					}
				}
				JOINT rclavicle
				{
					OFFSET 0.000000 0.000000 0.000000
					CHANNELS 3 Zrotation Yrotation Xrotation
					JOINT rhumerus
					{
						OFFSET -3.136600 1.374050 -0.404650
						CHANNELS 3 Zrotation Yrotation Xrotation
						JOINT rradius
						{
							OFFSET -5.241900 -0.000000 -0.000000
							CHANNELS 3 Zrotation Yrotation Xrotation
							JOINT rwrist
							{
								OFFSET -3.444170 -0.000000 -0.000000
								CHANNELS 3 Zrotation Yrotation Xrotation
								JOINT rhand
								{
									OFFSET 0.000000 0.000000 0.000000
									CHANNELS 3 Zrotation Yrotation Xrotation
									JOINT rfingers
									{
										OFFSET -0.622530 -0.000000 -0.000000
										CHANNELS 3 Zrotation Yrotation Xrotation
										End Site
										{
											OFFSET 0.000000 0.000000 0.000000
										}
									}
								}
								JOINT rthumb
								{
									OFFSET 0.000000 0.000000 0.000000
									CHANNELS 3 Zrotation Yrotation Xrotation
									End Site
									{
										OFFSET 0.000000 0.000000 0.000000
									}
								}
							}
						}
					}
				}
			}
		}
	}
}
MOTION
Frames: 9
Frame Time: 0.008333
1.297271 17.500526 2.891672 -155.134272 -46.312797 156.435424 -4.759377 -4.857361 -4.090706 -0.153837 -17.544975 3.588414 1.817043 9.502600 20.888861 -0.668380 -18.291838 10.410139 0.621000 5.043100 14.031500 10.900837 0.098123 3.807429 -9.675844 13.167412 -104.966722 -31.095359 -10.716044 128.696826 -1.995312 21.851544 6.619641 -2.381600 9.619300 -27.752500 -3.883729 0.774185 41.645951 1.549107 -5.311995 0.357090 -1.079354 -4.563890 9.138007 -5.484674 -5.431422 -10.357548 28.680881 -12.763192 6.496653 7.733100 -6.449400 3.218900 -6.396460 -3.725088 4.794508 -171.234714 -72.825685 140.671847 125.455288 -51.950778 -89.417538 -1.649337 2.869673 -4.484478 40.640679 -13.571179 -14.958400 -7.125000 0.000000 0.000000 9.141500 7.601500 -7.956500 7.957475 2.468353 3.156372 75.193288 -23.448976 24.925416 -11.488802 31.847012 -2.800267 -0.495783 -1.050276 24.567038 -13.515186 13.651470 -3.521700 7.125000 0.000000 0.000000 9.507800 -14.873600 6.845200 
1.294404 17.495240 2.898301 -155.307042 -46.070531 156.566670 -4.752806 -4.840891 -4.080909 -0.191400 -17.429199 3.535015 1.828458 9.551118 21.024267 -0.672166 -18.269859 10.232980 0.601000 4.962400 13.801500 10.851996 0.105072 3.795882 -9.475255 13.638393 -105.092886 -31.064108 -10.702318 128.592159 -2.011296 21.575086 6.649947 -2.324700 9.511900 -27.410200 -3.961210 0.839583 41.810912 1.540471 -5.293407 0.345827 -1.038772 -4.567494 9.060848 -5.643009 -5.414608 -10.336701 28.710325 -12.705603 6.363054 7.794300 -6.435500 3.188000 -6.405628 -3.725395 4.798983 -171.029925 -72.870200 140.107286 125.878596 -51.806372 -89.858926 -1.671697 2.847900 -4.555412 40.764383 -13.403126 -14.878500 -7.125000 0.000000 0.000000 9.268100 7.794900 -8.034100 7.957589 2.454294 3.155835 75.042139 -23.374857 25.089183 -11.657183 31.985289 -2.840955 -0.492169 -1.067160 24.405760 -13.550339 13.516959 -3.505100 7.125000 0.000000 0.000000 9.479500 -14.992000 6.799800 
1.291448 17.491926 2.907259 -155.484249 -45.842504 156.709546 -4.745465 -4.824721 -4.072606 -0.248410 -17.357359 3.496665 1.839169 9.591766 21.139387 -0.668778 -18.205050 10.057847 0.593700 4.932800 13.716900 10.805069 0.110470 3.783641 -9.286298 14.085758 -105.197316 -31.032498 -10.690601 128.483344 -2.025447 21.318603 6.612978 -2.322800 9.508400 -27.399000 -4.005854 0.887072 41.962278 1.530357 -5.291278 0.336379 -1.027154 -4.572167 9.000380 -5.813790 -5.417563 -10.352126 28.739874 -12.678347 6.256835 7.855400 -6.429800 3.180200 -6.416955 -3.721518 4.804954 -170.796223 -72.922140 139.562532 126.272631 -51.665152 -90.273446 -1.696854 2.822424 -4.645731 40.991602 -13.228338 -14.844800 -7.125000 0.000000 0.000000 9.462000 7.966600 -8.174500 7.953324 2.441594 3.154303 74.910800 -23.276297 25.281335 -11.846949 32.149841 -2.888663 -0.490881 -1.088308 24.137126 -13.621821 13.395741 -3.501700 7.125000 0.000000 0.000000 9.428300 -15.088900 6.742200 
1.287238 17.487447 2.915769 -155.692968 -45.625645 156.863645 -4.735696 -4.804921 -4.061885 -0.333181 -17.248295 3.451174 1.849420 9.631132 21.248685 -0.663094 -18.147093 9.941588 0.588900 4.913300 13.661400 10.762003 0.115675 3.773088 -9.128884 14.487562 -105.240863 -31.000910 -10.681466 128.376025 -2.036018 21.104996 6.610792 -2.309900 9.483800 -27.320900 -4.105819 0.933309 42.110800 1.525639 -5.298964 0.324572 -0.960531 -4.594418 8.943245 -6.014254 -5.429603 -10.416132 28.757913 -12.668246 6.221361 7.909500 -6.419700 3.207700 -6.427487 -3.714813 4.809207 -170.535807 -73.002992 138.989440 126.607986 -51.542619 -90.637735 -1.724005 2.793379 -4.738534 41.287881 -12.987333 -14.789500 -7.125000 0.000000 0.000000 9.714000 8.202300 -8.352900 7.954399 2.426981 3.153078 74.726871 -23.166913 25.509642 -12.036959 32.306749 -2.939389 -0.492486 -1.108916 23.874973 -13.784872 13.284141 -3.524100 7.125000 0.000000 0.000000 9.316900 -15.167700 6.644400 
1.282759 17.484401 2.924816 -155.893551 -45.387491 157.018566 -4.727142 -4.784925 -4.050018 -0.398644 -17.118420 3.388699 1.859407 9.670805 21.358970 -0.658814 -18.097306 9.830229 0.579700 4.875500 13.553800 10.714700 0.117779 3.761429 -8.955151 14.910373 -105.240393 -30.965011 -10.674031 128.254153 -2.043570 20.922203 6.681261 -2.309800 9.483700 -27.320300 -4.184943 0.983456 42.239842 1.524087 -5.288071 0.311481 -0.885806 -4.606000 8.882092 -6.250340 -5.445291 -10.425807 28.792411 -12.652518 6.118148 7.985700 -6.418200 3.205700 -6.436102 -3.712041 4.819324 -170.234253 -73.071233 138.388610 126.916597 -51.425942 -90.975097 -1.750439 2.764965 -4.796582 41.593837 -12.724053 -14.717800 -7.125000 0.000000 0.000000 9.977700 8.464100 -8.534300 7.951296 2.405957 3.150978 74.567032 -23.029123 25.662714 -12.205488 32.444300 -2.987410 -0.496359 -1.126882 23.587173 -13.951993 13.228039 -3.559100 7.125000 0.000000 0.000000 9.205100 -15.191400 6.557800 
1.277116 17.480102 2.934043 -156.108490 -45.179686 157.201584 -4.717457 -4.762242 -4.039355 -0.479153 -16.990188 3.280832 1.874308 9.717541 21.498462 -0.660598 -18.090759 9.735706 0.575200 4.857000 13.501000 10.675408 0.119637 3.749307 -8.805326 15.255818 -105.219188 -30.935413 -10.668016 128.148919 -2.049454 20.775992 6.625397 -2.357500 9.574000 -27.608000 -4.252112 1.016443 42.314403 1.520993 -5.296208 0.305698 -0.842309 -4.623174 8.869628 -6.469492 -5.466905 -10.501272 28.831480 -12.655729 6.060742 8.052700 -6.416600 3.232900 -6.445246 -3.702418 4.829653 -169.953810 -73.182994 137.886831 127.205032 -51.315857 -91.287753 -1.775688 2.733595 -4.900813 41.905166 -12.452229 -14.634900 -7.125000 0.000000 0.000000 10.245100 8.739100 -8.713800 7.941231 2.384021 3.150269 74.441754 -22.825535 25.767862 -12.320513 32.539990 -3.025932 -0.504775 -1.142735 23.359978 -14.203355 13.205059 -3.623400 7.125000 0.000000 0.000000 9.038700 -15.174600 6.439400 
1.270397 17.474727 2.942194 -156.347575 -44.973220 157.393611 -4.707296 -4.737607 -4.028511 -0.590555 -16.878135 3.184274 1.892122 9.771501 21.659278 -0.660599 -18.066698 9.604264 0.578100 4.868900 13.534900 10.639894 0.120243 3.738156 -8.666748 15.556895 -105.160017 -30.909291 -10.662839 128.054587 -2.052541 20.678832 6.558903 -2.441600 9.731000 -28.109800 -4.337917 1.058708 42.373863 1.518099 -5.295718 0.300556 -0.789334 -4.639547 8.864123 -6.698162 -5.491309 -10.596990 28.892803 -12.672835 6.036487 8.125600 -6.417000 3.280500 -6.453128 -3.691931 4.838785 -169.679860 -73.254806 137.348865 127.400069 -51.245071 -91.509218 -1.793847 2.710309 -4.930548 42.113078 -12.204873 -14.519000 -7.125000 0.000000 0.000000 10.440500 9.011800 -8.828100 7.928808 2.361880 3.148758 74.345090 -22.606552 25.859642 -12.419134 32.622217 -3.061226 -0.514766 -1.158671 23.108055 -14.476697 13.199033 -3.697700 7.125000 0.000000 0.000000 8.858800 -15.137600 6.315100 
1.262604 17.469352 2.950167 -156.575774 -44.744410 157.612154 -4.699509 -4.708996 -4.016293 -0.658955 -16.742693 3.016206 1.915116 9.840662 21.870434 -0.667904 -18.078654 9.454997 0.571500 4.841300 13.456400 10.604194 0.122297 3.724687 -8.513062 15.850390 -105.088488 -30.884150 -10.658203 127.961022 -2.054210 20.606657 6.491180 -2.508900 9.854100 -28.505600 -4.411516 1.101586 42.335197 1.525126 -5.268374 0.304897 -0.694297 -4.651229 8.908167 -6.973848 -5.517392 -10.662408 28.940135 -12.679757 5.981545 8.208600 -6.416400 3.308300 -6.464427 -3.682220 4.836215 -169.619855 -73.262934 136.955003 127.435909 -51.243571 -91.582149 -1.804498 2.697415 -4.976832 42.235215 -12.081620 -14.469500 -7.125000 0.000000 0.000000 10.549600 9.142400 -8.895600 7.924061 2.322755 3.154164 74.201662 -22.327047 25.880609 -12.471068 32.656527 -3.085614 -0.523242 -1.165897 22.965482 -14.716640 13.223433 -3.768700 7.125000 0.000000 0.000000 8.701500 -15.081200 6.211000 
1.253288 17.464246 2.956437 -156.829667 -44.563628 157.850330 -4.691210 -4.680225 -4.004161 -0.773035 -16.619350 2.830733 1.942492 9.910061 22.093474 -0.677102 -18.108806 9.314575 0.564700 4.813100 13.376400 10.578507 0.119347 3.715477 -8.380493 16.045369 -104.995843 -30.862693 -10.659118 127.881929 -2.055471 20.544109 6.536150 -2.543800 9.917100 -28.708800 -4.483585 1.123866 42.279834 1.516298 -5.274541 0.295813 -0.680010 -4.655253 8.905504 -7.189614 -5.509326 -10.655945 29.042801 -12.670471 5.941024 8.305900 -6.416600 3.325200 -6.474582 -3.679851 4.847720 -169.411403 -73.218524 136.409317 127.346934 -51.293513 -91.526524 -1.804130 2.696190 -4.932167 42.138520 -11.988197 -14.337300 -7.125000 0.000000 0.000000 10.510900 9.297400 -8.828600 7.903016 2.297450 3.153466 74.156843 -22.132594 25.954100 -12.518979 32.702926 -3.108238 -0.534722 -1.177710 22.837674 -15.002827 13.234530 -3.850600 7.125000 0.000000 0.000000 8.513300 -15.028200 6.083300 
